<svg width="1586" height="262" viewBox="0 0 1586 262" fill="none" xmlns="http://www.w3.org/2000/svg">
<path d="M270.176 63.582V174.344C270.176 179.841 271.587 183.853 274.41 186.379C277.382 188.904 281.319 190.167 286.222 190.167C290.233 190.167 293.725 189.573 296.696 188.384C299.668 187.047 302.417 185.264 304.942 183.036L310.291 200.419C306.874 203.39 302.639 205.768 297.588 207.551C292.685 209.185 287.188 210.002 281.096 210.002C274.707 210.002 268.839 208.962 263.49 206.882C258.141 204.802 253.981 201.459 251.01 196.853C248.038 192.099 246.478 185.933 246.33 178.356V70.2679L270.176 63.582ZM308.508 96.3427V115.063H224.935V96.3427H308.508ZM332.093 207.773V96.3427H352.374L354.602 116.4C357.574 109.12 361.957 103.623 367.751 99.9085C373.694 96.0455 380.974 94.114 389.591 94.114C391.82 94.114 394.049 94.3369 396.277 94.7826C398.506 95.0798 400.363 95.5998 401.849 96.3427L398.506 117.292C396.872 116.697 395.014 116.252 392.934 115.954C391.003 115.509 388.329 115.286 384.911 115.286C380.305 115.286 375.774 116.549 371.317 119.075C366.86 121.452 363.145 125.092 360.174 129.995C357.351 134.898 355.939 141.138 355.939 148.715V207.773H332.093ZM436.406 77.6223C431.206 77.6223 427.195 76.3594 424.372 73.8337C421.697 71.1593 420.36 67.445 420.36 62.6906C420.36 57.9362 421.697 54.2961 424.372 51.7704C427.195 49.2446 431.206 47.9817 436.406 47.9817C441.458 47.9817 445.321 49.2446 447.995 51.7704C450.818 54.2961 452.229 57.9362 452.229 62.6906C452.229 67.445 450.818 71.1593 447.995 73.8337C445.321 76.3594 441.458 77.6223 436.406 77.6223ZM448.218 96.3427V207.773H424.372V96.3427H448.218ZM545.255 210.002C538.718 210.002 532.7 208.739 527.203 206.213C521.854 203.688 517.323 200.196 513.609 195.739C509.894 191.133 507.146 186.007 505.363 180.361L508.26 176.573L506.477 207.773H485.528V46.1988H509.374V124.423L506.7 120.635C509.523 112.909 514.351 106.594 521.186 101.691C528.02 96.6398 536.266 94.114 545.924 94.114C554.838 94.114 563.01 96.417 570.438 101.023C578.016 105.629 583.959 112.24 588.267 120.857C592.576 129.475 594.73 139.949 594.73 152.281C594.73 164.315 592.502 174.641 588.044 183.259C583.736 191.876 577.793 198.488 570.215 203.093C562.787 207.699 554.467 210.002 545.255 210.002ZM540.129 190.836C549.786 190.836 557.289 187.419 562.638 180.584C568.135 173.601 570.884 164.093 570.884 152.058C570.884 140.024 568.21 130.589 562.861 123.755C557.512 116.92 550.009 113.503 540.352 113.503C534.112 113.503 528.689 115.137 524.083 118.406C519.477 121.526 515.837 125.983 513.163 131.778C510.637 137.572 509.374 144.481 509.374 152.504C509.374 160.378 510.637 167.213 513.163 173.007C515.689 178.653 519.254 183.036 523.86 186.156C528.615 189.276 534.038 190.836 540.129 190.836ZM674.281 210.002C663.138 210.002 653.332 207.699 644.864 203.093C636.395 198.488 629.783 191.876 625.029 183.259C620.423 174.493 618.12 164.093 618.12 152.058C618.12 140.024 620.423 129.698 625.029 121.08C629.783 112.314 636.321 105.629 644.641 101.023C652.961 96.417 662.395 94.114 672.944 94.114C683.79 94.114 693.002 96.3427 700.579 100.8C708.156 105.257 713.951 111.349 717.962 119.075C721.974 126.8 723.979 135.566 723.979 145.372C723.979 148.047 723.905 150.572 723.757 152.95C723.608 155.327 723.385 157.407 723.088 159.19H633.498V140.915H712.614L700.802 144.481C700.802 134.378 698.276 126.652 693.225 121.303C688.173 115.806 681.264 113.057 672.498 113.057C666.11 113.057 660.538 114.543 655.784 117.515C651.029 120.486 647.389 124.943 644.864 130.886C642.338 136.681 641.075 143.812 641.075 152.281C641.075 160.601 642.412 167.658 645.086 173.453C647.761 179.247 651.549 183.63 656.452 186.602C661.355 189.573 667.15 191.059 673.836 191.059C681.264 191.059 687.282 189.647 691.887 186.824C696.493 184.002 700.133 180.064 702.808 175.013L721.751 183.927C719.076 189.276 715.436 193.956 710.831 197.968C706.373 201.83 701.025 204.802 694.785 206.882C688.544 208.962 681.71 210.002 674.281 210.002ZM754.094 207.773V96.3427H774.374L776.603 116.4C779.574 109.12 783.957 103.623 789.751 99.9085C795.694 96.0455 802.975 94.114 811.592 94.114C813.821 94.114 816.049 94.3369 818.278 94.7826C820.506 95.0798 822.364 95.5998 823.849 96.3427L820.506 117.292C818.872 116.697 817.015 116.252 814.935 115.954C813.003 115.509 810.329 115.286 806.912 115.286C802.306 115.286 797.774 116.549 793.317 119.075C788.86 121.452 785.146 125.092 782.174 129.995C779.351 134.898 777.94 141.138 777.94 148.715V207.773H754.094ZM885.373 210.002C874.081 210.002 864.053 207.699 855.287 203.093C846.669 198.488 840.578 191.876 837.012 183.259L846.595 176.796C849.269 184.224 854.024 190.019 860.858 194.179C867.841 198.19 876.31 200.196 886.264 200.196C896.07 200.196 903.722 198.265 909.219 194.402C914.865 190.539 917.688 185.413 917.688 179.024C917.688 174.716 916.276 171.001 913.454 167.881C910.779 164.613 905.653 162.161 898.076 160.527L872.001 154.955C861.304 152.727 853.652 149.161 849.047 144.258C844.589 139.206 842.361 133.115 842.361 125.983C842.361 120.04 844.144 114.692 847.709 109.937C851.275 105.183 856.178 101.394 862.418 98.5713C868.807 95.5998 876.236 94.114 884.704 94.114C895.847 94.114 905.059 96.3427 912.339 100.8C919.619 105.109 924.745 111.646 927.717 120.412L918.356 126.429C916.128 118.555 911.968 112.834 905.876 109.269C899.933 105.703 892.876 103.92 884.704 103.92C878.464 103.92 872.967 104.886 868.213 106.817C863.607 108.6 859.967 111.126 857.292 114.394C854.767 117.515 853.504 121.155 853.504 125.315C853.504 129.623 854.99 133.561 857.961 137.126C860.932 140.544 866.207 143.069 873.784 144.704L900.528 150.498C911.076 152.727 918.431 156.144 922.591 160.75C926.751 165.207 928.831 170.778 928.831 177.464C928.831 184.15 927.048 189.945 923.482 194.847C919.917 199.75 914.865 203.539 908.328 206.213C901.79 208.739 894.139 210.002 885.373 210.002ZM978.508 65.3649V178.356C978.508 185.339 980.143 190.687 983.411 194.402C986.828 197.968 991.731 199.75 998.12 199.75C1002.28 199.75 1005.92 199.082 1009.04 197.745C1012.31 196.259 1015.21 194.179 1017.73 191.505L1021.97 200.642C1019.14 203.465 1015.58 205.768 1011.27 207.551C1006.96 209.185 1002.13 210.002 996.783 210.002C990.988 210.002 985.863 208.962 981.405 206.882C976.948 204.653 973.457 201.31 970.931 196.853C968.554 192.396 967.365 186.75 967.365 179.916V68.485L978.508 65.3649ZM1020.18 96.3427V105.926H945.079V96.3427H1020.18ZM1083.24 210.002C1075.52 210.002 1068.61 208.591 1062.52 205.768C1056.43 202.945 1051.6 198.562 1048.03 192.619C1044.61 186.527 1042.9 178.95 1042.9 169.887V96.3427H1054.05V167.213C1054.05 178.801 1056.8 187.196 1062.29 192.396C1067.94 197.596 1075.81 200.196 1085.92 200.196C1091.86 200.196 1097.21 199.156 1101.96 197.076C1106.87 194.996 1111.03 192.099 1114.44 188.384C1117.86 184.67 1120.46 180.436 1122.24 175.681C1124.17 170.927 1125.14 165.801 1125.14 160.304V96.3427H1136.28V207.773H1126.25L1125.81 184.819C1122.54 192.693 1117.19 198.859 1109.76 203.316C1102.33 207.773 1093.49 210.002 1083.24 210.002ZM1219.37 210.002C1209.71 210.002 1201.02 207.699 1193.29 203.093C1185.57 198.488 1179.47 191.876 1175.02 183.259C1170.71 174.493 1168.55 164.093 1168.55 152.058C1168.55 139.726 1170.86 129.252 1175.46 120.635C1180.07 112.017 1186.31 105.48 1194.18 101.023C1202.06 96.417 1210.75 94.114 1220.26 94.114C1230.66 94.114 1239.5 96.8627 1246.78 102.36C1254.21 107.857 1259.18 115.509 1261.71 125.315L1260.37 126.206V45.0845H1271.52V207.773H1261.49L1260.82 176.796L1262.16 176.35C1260.82 183.482 1258.07 189.573 1253.91 194.625C1249.9 199.676 1244.85 203.539 1238.75 206.213C1232.81 208.739 1226.35 210.002 1219.37 210.002ZM1220.7 200.196C1228.58 200.196 1235.49 198.265 1241.43 194.402C1247.37 190.39 1251.98 184.67 1255.25 177.241C1258.66 169.813 1260.37 161.121 1260.37 151.167C1260.37 141.361 1258.66 132.966 1255.25 125.983C1251.98 118.852 1247.37 113.429 1241.43 109.714C1235.63 105.851 1228.87 103.92 1221.15 103.92C1208.37 103.92 1198.27 108.229 1190.84 116.846C1183.41 125.463 1179.7 137.201 1179.7 152.058C1179.7 166.915 1183.34 178.653 1190.62 187.27C1198.05 195.887 1208.07 200.196 1220.7 200.196ZM1316.85 74.7251C1314.03 74.7251 1311.72 73.9079 1309.94 72.2736C1308.31 70.4907 1307.49 68.1878 1307.49 65.3649C1307.49 62.542 1308.31 60.3134 1309.94 58.6791C1311.72 56.8962 1314.03 56.0047 1316.85 56.0047C1319.67 56.0047 1321.9 56.8962 1323.54 58.6791C1325.32 60.3134 1326.21 62.542 1326.21 65.3649C1326.21 68.1878 1325.32 70.4907 1323.54 72.2736C1321.9 73.9079 1319.67 74.7251 1316.85 74.7251ZM1322.42 96.3427V207.773H1311.28V96.3427H1322.42ZM1407.45 94.114C1417.85 94.114 1426.99 96.417 1434.86 101.023C1442.89 105.629 1449.13 112.314 1453.58 121.08C1458.19 129.698 1460.49 140.024 1460.49 152.058C1460.49 164.093 1458.19 174.493 1453.58 183.259C1449.13 191.876 1442.89 198.488 1434.86 203.093C1426.99 207.699 1417.85 210.002 1407.45 210.002C1397.05 210.002 1387.84 207.699 1379.82 203.093C1371.94 198.488 1365.7 191.876 1361.1 183.259C1356.64 174.493 1354.41 164.093 1354.41 152.058C1354.41 140.024 1356.64 129.698 1361.1 121.08C1365.7 112.314 1371.94 105.629 1379.82 101.023C1387.84 96.417 1397.05 94.114 1407.45 94.114ZM1407.45 103.697C1398.98 103.697 1391.63 105.629 1385.39 109.492C1379.15 113.354 1374.25 118.926 1370.68 126.206C1367.26 133.338 1365.55 141.955 1365.55 152.058C1365.55 162.013 1367.26 170.63 1370.68 177.91C1374.25 185.19 1379.15 190.762 1385.39 194.625C1391.63 198.488 1398.98 200.419 1407.45 200.419C1415.92 200.419 1423.28 198.488 1429.52 194.625C1435.76 190.762 1440.58 185.19 1444 177.91C1447.57 170.63 1449.35 162.013 1449.35 152.058C1449.35 141.955 1447.57 133.338 1444 126.206C1440.58 118.926 1435.76 113.354 1429.52 109.492C1423.28 105.629 1415.92 103.697 1407.45 103.697ZM1530.02 210.002C1518.73 210.002 1508.7 207.699 1499.93 203.093C1491.31 198.488 1485.22 191.876 1481.66 183.259L1491.24 176.796C1493.91 184.224 1498.67 190.019 1505.5 194.179C1512.49 198.19 1520.95 200.196 1530.91 200.196C1540.71 200.196 1548.37 198.265 1553.86 194.402C1559.51 190.539 1562.33 185.413 1562.33 179.024C1562.33 174.716 1560.92 171.001 1558.1 167.881C1555.42 164.613 1550.3 162.161 1542.72 160.527L1516.65 154.955C1505.95 152.727 1498.3 149.161 1493.69 144.258C1489.23 139.206 1487.01 133.115 1487.01 125.983C1487.01 120.04 1488.79 114.692 1492.35 109.937C1495.92 105.183 1500.82 101.394 1507.06 98.5713C1513.45 95.5998 1520.88 94.114 1529.35 94.114C1540.49 94.114 1549.7 96.3427 1556.98 100.8C1564.26 105.109 1569.39 111.646 1572.36 120.412L1563 126.429C1560.77 118.555 1556.61 112.834 1550.52 109.269C1544.58 105.703 1537.52 103.92 1529.35 103.92C1523.11 103.92 1517.61 104.886 1512.86 106.817C1508.25 108.6 1504.61 111.126 1501.94 114.394C1499.41 117.515 1498.15 121.155 1498.15 125.315C1498.15 129.623 1499.63 133.561 1502.61 137.126C1505.58 140.544 1510.85 143.069 1518.43 144.704L1545.17 150.498C1555.72 152.727 1563.08 156.144 1567.24 160.75C1571.4 165.207 1573.48 170.778 1573.48 177.464C1573.48 184.15 1571.69 189.945 1568.13 194.847C1564.56 199.75 1559.51 203.539 1552.97 206.213C1546.43 208.739 1538.78 210.002 1530.02 210.002Z" fill="#FCFDE8"/>
<path d="M49.1719 175.018C49.1719 178.809 52.2458 181.883 56.0371 181.883H70.6816V194.24H56.0371L55.541 194.234C45.3188 193.975 37.0792 185.736 36.8203 175.514L36.8145 175.018V158.746H49.1719V175.018ZM155.345 175.018L155.338 175.514C155.079 185.736 146.84 193.976 136.617 194.234L136.121 194.24H121.474V181.883H136.121C139.913 181.883 142.986 178.809 142.986 175.018V158.746H155.345V175.018ZM70.6816 84.9355H56.0371C52.3644 84.9358 49.3647 87.8202 49.1807 91.4473L49.1719 91.8008V107.537H36.8145V91.8008C36.8146 81.3504 45.1541 72.8474 55.541 72.584L56.0371 72.5781H70.6816V84.9355ZM136.617 72.584C147.004 72.8469 155.345 81.3501 155.345 91.8008V107.537H142.986V91.8008C142.986 88.0093 139.913 84.9355 136.121 84.9355H121.474V72.5781H136.121L136.617 72.584Z" fill="#FCFDE8"/>
<path d="M96.0791 37.0781C100.489 37.0781 104.063 40.6529 104.063 45.0625V84.0161C104.063 106.766 122.506 125.208 145.255 125.208H183.367C187.777 125.208 191.351 128.783 191.352 133.192C191.352 137.464 187.997 140.952 183.778 141.166L183.367 141.177H145.255C122.506 141.177 104.063 159.619 104.063 182.369V221.322C104.063 225.732 100.489 229.307 96.0791 229.307C91.6695 229.307 88.0947 225.732 88.0947 221.322V182.369C88.0947 159.619 69.6525 141.177 46.9028 141.177H8.78223L8.37207 141.166C4.15322 140.952 0.797852 137.464 0.797852 133.192C0.798043 128.921 4.15334 125.432 8.37207 125.219L8.78223 125.208H46.9029C69.6525 125.208 88.0947 106.766 88.0947 84.0161V45.0625C88.0948 40.6529 91.6695 37.0781 96.0791 37.0781Z" fill="#FCFDE8"/>
</svg>
