<svg width="1056" height="151" viewBox="0 0 1056 151" fill="none" xmlns="http://www.w3.org/2000/svg">
<path d="M150 109.396C150 115.253 116.421 120 75 120C33.5786 120 0 115.253 0 109.396C0 103.54 33.5786 98.7929 75 98.7929C116.421 98.7929 150 103.54 150 109.396Z" fill="#FCFDE8"/>
<path fill-rule="evenodd" clip-rule="evenodd" d="M129.365 69.0189C129.37 69.0195 129.343 69.0507 129.273 69.1111C129.326 69.0485 129.361 69.0183 129.365 69.0189ZM123.981 71.311C121.515 70.6147 118.379 69.9545 114.651 69.3634C104.281 67.7197 89.8548 66.6903 73.8518 66.6903C57.8489 66.6903 43.4227 67.7197 33.053 69.3634C29.3247 69.9545 26.1885 70.6147 23.7229 71.311C26.1885 72.0073 29.3247 72.6675 33.053 73.2585C43.4227 74.9023 57.8489 75.9317 73.8518 75.9317C89.8548 75.9317 104.281 74.9023 114.651 73.2585C118.379 72.6675 121.515 72.0073 123.981 71.311ZM18.3382 69.0189C18.3426 69.0183 18.3778 69.0485 18.4308 69.1113C18.3603 69.0508 18.3338 69.0195 18.3382 69.0189ZM18.3382 73.6031C18.3338 73.6025 18.3603 73.5712 18.4308 73.5107C18.3778 73.5734 18.3426 73.6037 18.3382 73.6031ZM129.273 73.5108C129.343 73.5712 129.37 73.6025 129.365 73.6031C129.361 73.6037 129.326 73.5735 129.273 73.5108ZM73.8518 80.5525C106.05 80.5525 132.151 76.4149 132.151 71.311C132.151 66.2071 106.05 62.0695 73.8518 62.0695C41.6539 62.0695 15.5523 66.2071 15.5523 71.311C15.5523 76.4149 41.6539 80.5525 73.8518 80.5525Z" fill="#FCFDE8"/>
<path fill-rule="evenodd" clip-rule="evenodd" d="M114.128 39.0626C114.096 39.0768 114.063 39.0909 114.03 39.1051C107.976 41.7241 92.496 43.5866 74.3548 43.5866C56.2136 43.5866 40.7334 41.7241 34.6792 39.1051C34.6465 39.0909 34.6141 39.0768 34.582 39.0626C32.8832 38.3128 31.9551 37.5019 31.9551 36.6555C31.9551 35.8091 32.8832 34.9981 34.582 34.2483C34.6141 34.2342 34.6465 34.22 34.6792 34.2059C40.7334 31.5868 56.2136 29.7244 74.3548 29.7244C92.496 29.7244 107.976 31.5868 114.03 34.2059C114.063 34.22 114.096 34.2342 114.128 34.2483C115.826 34.9981 116.754 35.8091 116.754 36.6555C116.754 37.5019 115.826 38.3128 114.128 39.0626ZM42.9625 36.6555C43.534 36.5495 44.1292 36.4458 44.7476 36.3447C52.2616 35.1164 62.7308 34.3451 74.3548 34.3451C85.9789 34.3451 96.448 35.1164 103.962 36.3447C104.58 36.4458 105.176 36.5495 105.747 36.6555C105.176 36.7614 104.58 36.8651 103.962 36.9662C96.448 38.1945 85.9789 38.9658 74.3548 38.9658C62.7308 38.9658 52.2616 38.1945 44.7476 36.9662C44.1292 36.8651 43.534 36.7614 42.9625 36.6555Z" fill="#FCFDE8"/>
<path d="M96.4165 7.30163C96.4165 10.2297 86.4337 12.6034 74.1192 12.6034C61.8047 12.6034 51.8219 10.2297 51.8219 7.30163C51.8219 4.37355 61.8047 1.99988 74.1192 1.99988C86.4337 1.99988 96.4165 4.37355 96.4165 7.30163Z" fill="#FCFDE8"/>
<path fill-rule="evenodd" clip-rule="evenodd" d="M84.8772 7.30164C81.7533 6.87312 78.0793 6.62062 74.1192 6.62062C70.1591 6.62062 66.4851 6.87312 63.3612 7.30164C66.4851 7.73015 70.1591 7.98265 74.1192 7.98265C78.0793 7.98265 81.7533 7.73015 84.8772 7.30164ZM74.1192 12.6034C86.4337 12.6034 96.4165 10.2297 96.4165 7.30163C96.4165 4.37355 86.4337 1.99988 74.1192 1.99988C61.8047 1.99988 51.8219 4.37355 51.8219 7.30163C51.8219 10.2297 61.8047 12.6034 74.1192 12.6034Z" fill="#FCFDE8"/>
<path d="M1021.7 118.61C1014.29 118.61 1007.69 116.946 1001.89 113.619C996.096 110.292 991.535 105.515 988.207 99.29C984.987 92.9573 983.377 85.444 983.377 76.75C983.377 68.056 984.987 60.5963 988.207 54.371C991.535 48.0383 995.989 43.2083 1001.57 39.881C1007.15 36.5537 1013.54 34.89 1020.73 34.89C1028.03 34.89 1034.25 36.5 1039.41 39.72C1044.56 42.94 1048.53 47.448 1051.32 53.244C1054.11 58.9327 1055.51 65.5337 1055.51 73.047C1055.51 74.013 1055.45 74.979 1055.34 75.945C1055.34 76.8037 1055.29 77.6087 1055.18 78.36H988.368V71.115H1051.64L1047.62 72.242C1047.51 63.0113 1045.04 55.659 1040.21 50.185C1035.49 44.711 1028.94 41.974 1020.57 41.974C1014.77 41.974 1009.67 43.3693 1005.27 46.16C1000.87 48.8433 997.438 52.8147 994.969 58.074C992.501 63.226 991.266 69.4513 991.266 76.75C991.266 83.9413 992.501 90.1667 994.969 95.426C997.545 100.685 1001.09 104.71 1005.6 107.501C1010.21 110.184 1015.52 111.526 1021.53 111.526C1027.76 111.526 1033.07 110.184 1037.47 107.501C1041.98 104.818 1045.47 101.115 1047.94 96.392L1054.38 100.095C1052.45 103.959 1049.87 107.286 1046.65 110.077C1043.43 112.76 1039.73 114.853 1035.54 116.356C1031.36 117.859 1026.74 118.61 1021.7 118.61Z" fill="#FCFDE8"/>
<path d="M933.955 34.89C939.429 34.89 944.313 35.7487 948.606 37.466C952.9 39.1833 956.549 41.652 959.554 44.872C962.56 48.092 964.867 52.0097 966.477 56.625L958.91 60.167C957.193 54.371 954.188 49.9167 949.894 46.804C945.708 43.584 940.342 41.974 933.794 41.974C927.891 41.974 922.685 43.3693 918.177 46.16C913.669 48.8433 910.181 52.8147 907.712 58.074C905.244 63.226 904.009 69.4513 904.009 76.75C904.009 83.9413 905.244 90.1667 907.712 95.426C910.181 100.685 913.616 104.71 918.016 107.501C922.417 110.184 927.623 111.526 933.633 111.526C938.141 111.526 942.22 110.775 945.869 109.272C949.626 107.769 952.685 105.569 955.046 102.671C957.515 99.773 959.125 96.3383 959.876 92.367L967.282 94.943C965.887 99.8803 963.579 104.12 960.359 107.662C957.247 111.204 953.436 113.941 948.928 115.873C944.42 117.698 939.376 118.61 933.794 118.61C926.496 118.61 919.948 116.946 914.152 113.619C908.464 110.292 904.009 105.515 900.789 99.29C897.569 92.9573 895.959 85.444 895.959 76.75C895.959 68.056 897.569 60.5963 900.789 54.371C904.117 48.0383 908.625 43.2083 914.313 39.881C920.109 36.5537 926.657 34.89 933.955 34.89Z" fill="#FCFDE8"/>
<path d="M863.282 64.031C863.282 57.0543 861.403 51.634 857.647 47.77C853.89 43.906 848.523 41.974 841.546 41.974C835.428 41.974 830.169 43.3157 825.768 45.999C821.368 48.575 818.094 52.922 815.947 59.04L809.346 54.854C811.708 48.5213 815.626 43.6377 821.1 40.203C826.681 36.661 833.55 34.89 841.707 34.89C847.611 34.89 852.763 35.9633 857.163 38.11C861.671 40.1493 865.16 43.2083 867.629 47.287C870.097 51.3657 871.332 56.464 871.332 62.582V102.832C871.332 108.521 873.907 111.365 879.059 111.365C881.313 111.365 883.245 110.989 884.855 110.238L884.372 116.678C882.548 117.644 880.186 118.127 877.288 118.127C874.82 118.127 872.512 117.644 870.366 116.678C868.219 115.712 866.448 114.102 865.053 111.848C863.765 109.594 863.121 106.535 863.121 102.671V98.324L865.374 98.163C864.408 102.778 862.262 106.642 858.934 109.755C855.714 112.76 851.958 115.014 847.665 116.517C843.371 117.912 839.078 118.61 834.785 118.61C829.74 118.61 825.232 117.805 821.26 116.195C817.289 114.585 814.177 112.277 811.923 109.272C809.669 106.159 808.541 102.349 808.541 97.841C808.541 91.8303 810.527 87.0003 814.499 83.351C818.577 79.5943 824.266 77.0183 831.564 75.623L864.892 69.022V75.784L835.59 81.58C829.257 82.868 824.534 84.7463 821.421 87.215C818.309 89.6837 816.752 93.0647 816.752 97.358C816.752 101.759 818.416 105.247 821.743 107.823C825.071 110.292 829.793 111.526 835.911 111.526C839.024 111.526 842.19 111.097 845.41 110.238C848.63 109.379 851.582 108.038 854.265 106.213C857.056 104.281 859.256 101.92 860.866 99.129C862.476 96.231 863.282 92.7427 863.282 88.664V64.031Z" fill="#FCFDE8"/>
<path d="M716.221 150.81V36.5H723.466L724.11 58.879L722.983 57.591C724.378 52.9757 726.525 48.9507 729.423 45.516C732.428 42.0813 736.077 39.4517 740.371 37.627C744.664 35.8023 749.333 34.89 754.378 34.89C761.247 34.89 767.419 36.5537 772.893 39.881C778.367 43.2083 782.714 47.9847 785.934 54.21C789.154 60.4353 790.764 67.9487 790.764 76.75C790.764 85.444 789.154 92.9573 785.934 99.29C782.714 105.515 778.313 110.292 772.732 113.619C767.258 116.946 761.032 118.61 754.056 118.61C746.65 118.61 740.21 116.678 734.736 112.814C729.262 108.843 725.451 103.53 723.305 96.875L724.271 95.426V150.81H716.221ZM753.09 111.526C762.213 111.526 769.404 108.413 774.664 102.188C780.03 95.9627 782.714 87.4833 782.714 76.75C782.714 66.0167 780.084 57.5373 774.825 51.312C769.565 45.0867 762.428 41.974 753.412 41.974C747.723 41.974 742.678 43.423 738.278 46.321C733.984 49.1117 730.55 53.1367 727.974 58.396C725.505 63.548 724.271 69.666 724.271 76.75C724.271 83.7267 725.505 89.8447 727.974 95.104C730.442 100.363 733.823 104.442 738.117 107.34C742.517 110.131 747.508 111.526 753.09 111.526Z" fill="#FCFDE8"/>
<path d="M662.301 118.61C654.143 118.61 646.898 116.946 640.566 113.619C634.34 110.292 629.94 105.515 627.364 99.29L634.287 94.621C636.219 99.9877 639.653 104.174 644.591 107.179C649.635 110.077 655.753 111.526 662.945 111.526C670.029 111.526 675.556 110.131 679.528 107.34C683.606 104.549 685.646 100.846 685.646 96.231C685.646 93.1183 684.626 90.435 682.587 88.181C680.655 85.8197 676.952 84.0487 671.478 82.868L652.641 78.843C644.913 77.233 639.385 74.657 636.058 71.115C632.838 67.4657 631.228 63.065 631.228 57.913C631.228 53.6197 632.516 49.7557 635.092 46.321C637.668 42.8863 641.21 40.1493 645.718 38.11C650.333 35.9633 655.7 34.89 661.818 34.89C669.868 34.89 676.522 36.5 681.782 39.72C687.041 42.8327 690.744 47.5553 692.891 53.888L686.129 58.235C684.519 52.5463 681.513 48.414 677.113 45.838C672.819 43.262 667.721 41.974 661.818 41.974C657.31 41.974 653.338 42.6717 649.904 44.067C646.576 45.355 643.947 47.1797 642.015 49.541C640.19 51.795 639.278 54.4247 639.278 57.43C639.278 60.5427 640.351 63.387 642.498 65.963C644.644 68.4317 648.455 70.2563 653.929 71.437L673.249 75.623C680.869 77.233 686.182 79.7017 689.188 83.029C692.193 86.249 693.696 90.274 693.696 95.104C693.696 99.934 692.408 104.12 689.832 107.662C687.256 111.204 683.606 113.941 678.884 115.873C674.161 117.698 668.633 118.61 662.301 118.61Z" fill="#FCFDE8"/>
<path d="M563.462 117V36.5H578.113L579.723 50.99C581.869 45.7307 585.036 41.7593 589.222 39.076C593.515 36.2853 598.774 34.89 605 34.89C606.61 34.89 608.22 35.051 609.83 35.373C611.44 35.5877 612.781 35.9633 613.855 36.5L611.44 51.634C610.259 51.2047 608.917 50.8827 607.415 50.668C606.019 50.346 604.087 50.185 601.619 50.185C598.291 50.185 595.018 51.0973 591.798 52.922C588.578 54.6393 585.894 57.269 583.748 60.811C581.708 64.353 580.689 68.861 580.689 74.335V117H563.462Z" fill="#FCFDE8"/>
<path d="M505.803 118.61C497.753 118.61 490.67 116.946 484.552 113.619C478.434 110.292 473.657 105.515 470.223 99.29C466.895 92.9573 465.232 85.444 465.232 76.75C465.232 68.056 466.895 60.5963 470.223 54.371C473.657 48.0383 478.38 43.2083 484.391 39.881C490.401 36.5537 497.217 34.89 504.838 34.89C512.673 34.89 519.328 36.5 524.802 39.72C530.276 42.94 534.462 47.3407 537.359 52.922C540.257 58.5033 541.707 64.836 541.707 71.92C541.707 73.852 541.653 75.6767 541.546 77.394C541.438 79.1113 541.277 80.614 541.062 81.902H476.341V68.7H533.496L524.963 71.276C524.963 63.9773 523.138 58.396 519.488 54.532C515.839 50.5607 510.848 48.575 504.516 48.575C499.9 48.575 495.875 49.6483 492.441 51.795C489.006 53.9417 486.376 57.1617 484.552 61.455C482.727 65.641 481.815 70.793 481.815 76.911C481.815 82.9217 482.78 88.02 484.712 92.206C486.644 96.392 489.382 99.5583 492.924 101.705C496.466 103.852 500.652 104.925 505.482 104.925C510.848 104.925 515.195 103.905 518.523 101.866C521.85 99.8267 524.479 96.9823 526.411 93.333L540.097 99.773C538.165 103.637 535.535 107.018 532.208 109.916C528.988 112.707 525.124 114.853 520.616 116.356C516.108 117.859 511.17 118.61 505.803 118.61Z" fill="#FCFDE8"/>
<path d="M412.592 118.61C407.869 118.61 403.522 117.698 399.551 115.873C395.687 114.048 392.413 111.526 389.73 108.306C387.047 104.979 385.061 101.276 383.773 97.197L385.866 94.46L384.578 117H369.444V0.274994H386.671V56.786L384.739 54.049C386.778 48.4677 390.267 43.906 395.204 40.364C400.141 36.7147 406.098 34.89 413.075 34.89C419.515 34.89 425.418 36.5537 430.785 39.881C436.259 43.2083 440.552 47.9847 443.665 54.21C446.778 60.4353 448.334 68.0023 448.334 76.911C448.334 85.605 446.724 93.0647 443.504 99.29C440.391 105.515 436.098 110.292 430.624 113.619C425.257 116.946 419.247 118.61 412.592 118.61ZM408.889 104.764C415.866 104.764 421.286 102.295 425.15 97.358C429.121 92.3133 431.107 85.444 431.107 76.75C431.107 68.056 429.175 61.2403 425.311 56.303C421.447 51.3657 416.027 48.897 409.05 48.897C404.542 48.897 400.624 50.0777 397.297 52.439C393.97 54.693 391.34 57.913 389.408 62.099C387.583 66.285 386.671 71.276 386.671 77.072C386.671 82.7607 387.583 87.698 389.408 91.884C391.233 95.9627 393.809 99.129 397.136 101.383C400.571 103.637 404.488 104.764 408.889 104.764Z" fill="#FCFDE8"/>
<path d="M333.957 22.976C330.201 22.976 327.303 22.0637 325.263 20.239C323.331 18.307 322.365 15.6237 322.365 12.189C322.365 8.75432 323.331 6.12465 325.263 4.29998C327.303 2.47532 330.201 1.56299 333.957 1.56299C337.607 1.56299 340.397 2.47532 342.329 4.29998C344.369 6.12465 345.388 8.75432 345.388 12.189C345.388 15.6237 344.369 18.307 342.329 20.239C340.397 22.0637 337.607 22.976 333.957 22.976ZM342.49 36.5V117H325.263V36.5H342.49Z" fill="#FCFDE8"/>
<path d="M258.599 117V36.5H273.25L274.86 50.99C277.007 45.7307 280.173 41.7593 284.359 39.076C288.653 36.2853 293.912 34.89 300.137 34.89C301.747 34.89 303.357 35.051 304.967 35.373C306.577 35.5877 307.919 35.9633 308.992 36.5L306.577 51.634C305.397 51.2047 304.055 50.8827 302.552 50.668C301.157 50.346 299.225 50.185 296.756 50.185C293.429 50.185 290.155 51.0973 286.935 52.922C283.715 54.6393 281.032 57.269 278.885 60.811C276.846 64.353 275.826 68.861 275.826 74.335V117H258.599Z" fill="#FCFDE8"/>
<path d="M213.869 12.833V92.85C213.869 96.8213 214.889 99.7194 216.928 101.544C219.075 103.369 221.919 104.281 225.461 104.281C228.359 104.281 230.881 103.852 233.028 102.993C235.175 102.027 237.16 100.739 238.985 99.129L242.849 111.687C240.38 113.834 237.321 115.551 233.672 116.839C230.13 118.02 226.159 118.61 221.758 118.61C217.143 118.61 212.903 117.859 209.039 116.356C205.175 114.853 202.17 112.438 200.023 109.111C197.876 105.676 196.749 101.222 196.642 95.748V17.663L213.869 12.833ZM241.561 36.5V50.024H181.186V36.5H241.561Z" fill="#FCFDE8"/>
</svg>
