<svg width="151" height="119" viewBox="0 0 151 119" fill="none" xmlns="http://www.w3.org/2000/svg">
<path d="M150.799 107.443C150.799 113.3 117.22 118.047 75.7988 118.047C34.3775 118.047 0.798828 113.3 0.798828 107.443C0.798828 101.587 34.3775 96.8398 75.7988 96.8398C117.22 96.8398 150.799 101.587 150.799 107.443Z" fill="#FCFDE8"/>
<path fill-rule="evenodd" clip-rule="evenodd" d="M130.165 67.0666C130.169 67.0671 130.143 67.0984 130.072 67.1588C130.125 67.0962 130.16 67.066 130.165 67.0666ZM124.78 69.3587C122.314 68.6623 119.178 68.0021 115.45 67.4111C105.08 65.7673 90.6541 64.7379 74.6511 64.7379C58.6481 64.7379 44.222 65.7673 33.8523 67.4111C30.1239 68.0021 26.9878 68.6623 24.5221 69.3587C26.9878 70.055 30.1239 70.7152 33.8523 71.3062C44.222 72.95 58.6481 73.9794 74.6511 73.9794C90.6541 73.9794 105.08 72.95 115.45 71.3062C119.178 70.7152 122.314 70.055 124.78 69.3587ZM19.1375 67.0666C19.1418 67.066 19.1771 67.0962 19.23 67.159C19.1596 67.0985 19.1331 67.0671 19.1375 67.0666ZM19.1375 71.6508C19.1331 71.6502 19.1596 71.6188 19.23 71.5584C19.1771 71.6211 19.1418 71.6513 19.1375 71.6508ZM130.072 71.5585C130.143 71.6189 130.169 71.6502 130.165 71.6508C130.16 71.6514 130.125 71.6211 130.072 71.5585ZM74.6511 78.6001C106.849 78.6001 132.951 74.4626 132.951 69.3587C132.951 64.2547 106.849 60.1172 74.6511 60.1172C42.4532 60.1172 16.3516 64.2547 16.3516 69.3587C16.3516 74.4626 42.4532 78.6001 74.6511 78.6001Z" fill="#FCFDE8"/>
<path fill-rule="evenodd" clip-rule="evenodd" d="M114.926 37.1078C114.894 37.122 114.862 37.1361 114.829 37.1502C108.775 39.7693 93.2948 41.6317 75.1536 41.6317C57.0124 41.6317 41.5322 39.7693 35.478 37.1502C35.4453 37.1361 35.4129 37.122 35.3807 37.1078C33.6819 36.358 32.7539 35.547 32.7539 34.7006C32.7539 33.8543 33.6819 33.0433 35.3807 32.2935C35.4129 32.2793 35.4453 32.2652 35.4779 32.251C41.5322 29.632 57.0124 27.7695 75.1536 27.7695C93.2948 27.7695 108.775 29.632 114.829 32.251C114.862 32.2652 114.894 32.2793 114.926 32.2935C116.625 33.0433 117.553 33.8543 117.553 34.7006C117.553 35.547 116.625 36.358 114.926 37.1078ZM43.7613 34.7006C44.3328 34.5947 44.928 34.491 45.5463 34.3899C53.0604 33.1616 63.5295 32.3903 75.1536 32.3903C86.7776 32.3903 97.2468 33.1616 104.761 34.3899C105.379 34.491 105.974 34.5947 106.546 34.7006C105.974 34.8066 105.379 34.9103 104.761 35.0114C97.2468 36.2397 86.7776 37.011 75.1536 37.011C63.5295 37.011 53.0604 36.2397 45.5463 35.0114C44.928 34.9103 44.3328 34.8066 43.7613 34.7006Z" fill="#FCFDE8"/>
<path d="M97.2157 5.34863C97.2157 8.27671 87.2328 10.6504 74.9184 10.6504C62.6039 10.6504 52.6211 8.27671 52.6211 5.34863C52.6211 2.42055 62.6039 0.046875 74.9184 0.046875C87.2328 0.046875 97.2157 2.42055 97.2157 5.34863Z" fill="#FCFDE8"/>
<path fill-rule="evenodd" clip-rule="evenodd" d="M85.6764 5.34863C82.5524 4.92012 78.8785 4.66761 74.9184 4.66761C70.9583 4.66761 67.2843 4.92012 64.1604 5.34863C67.2843 5.77715 70.9583 6.02965 74.9184 6.02965C78.8785 6.02965 82.5524 5.77715 85.6764 5.34863ZM74.9184 10.6504C87.2328 10.6504 97.2157 8.27671 97.2157 5.34863C97.2157 2.42055 87.2328 0.046875 74.9184 0.046875C62.6039 0.046875 52.6211 2.42055 52.6211 5.34863C52.6211 8.27671 62.6039 10.6504 74.9184 10.6504Z" fill="#FCFDE8"/>
</svg>
